<?xml version="1.0" encoding="UTF-8"?>
<svg xmlns:svg="http://www.w3.org/2000/svg" xmlns="http://www.w3.org/2000/svg" version="1.1" xml:space="preserve" viewBox="0 0 480 200" id="svg1"><path
   id="path5" d="m 473.37448,122.09211 c 0,-0.12106 -0.12105,-0.12106 -0.12105,-0.12106 -8.71556,-17.43091 -26.75174,-29.29363 -47.45092,-29.29363 -10.65225,0 -20.57818,3.14726 -28.93054,8.59442 -0.12105,0.12105 -0.24206,0.12105 -0.48417,0.24207 -0.12105,0 -0.12105,0.12108 -0.12105,0.12108 -9.68384,6.41557 -17.06777,15.97835 -20.94131,27.23581 -0.1213,0.12106 -0.1213,0.2421 -0.1213,0.36317 -1.69471,5.32609 -2.66309,10.89429 -2.66309,16.7046 0,8.47337 2.05781,16.5836 5.56819,23.72544 0,0 0,0.12106 0.12107,0.12106 0.12106,0.24209 0.24207,0.36313 0.36312,0.60525 8.23131,15.85729 24.08861,26.99369 42.73001,28.56734 0.12106,0 0.12106,0 0.2421,0 0.12129,0 0.12129,0 0.24208,0 1.33151,0.12105 2.66305,0.12105 4.11565,0.12105 10.77325,0 20.82022,-3.26832 29.17256,-8.71544 0,0 0.12105,0 0.12105,-0.12108 0,0 0.12093,-0.12105 0.12093,-0.12105 7.86813,-5.32611 14.2837,-12.589 18.52037,-21.18341 0,0 0,-0.12108 0.12105,-0.12108 3.38935,-7.02079 5.20508,-14.76785 5.20508,-22.99911 0,-8.47337 -1.93678,-16.46255 -5.44716,-23.48334 -0.24207,0 -0.24207,-0.12105 -0.36317,-0.24209 z m -3.02618,1.93678 c 3.51039,7.50497 2.54203,16.70462 -2.90516,26.02533 -1.69468,2.90515 -3.75249,5.8103 -6.17347,8.47335 -2.17887,-6.65763 -2.42096,-11.74167 -2.78411,-18.1572 -0.24207,-4.59984 -0.48418,-9.80489 -1.45255,-16.46254 -1.45259,-9.68386 -5.56823,-17.06778 -10.16805,-22.99913 10.16805,4.8419 18.52032,13.07318 23.48334,23.12019 z M 439.96523,98.3667 c 5.68924,6.41554 11.74166,14.6468 13.55738,26.26741 0.9684,6.41556 1.21047,11.49956 1.45258,15.97837 0.36314,6.89972 0.60523,12.95214 3.63142,20.9413 -2.17886,2.17888 -4.59983,4.23666 -7.26285,6.17346 -4.59987,-9.8049 -11.13642,-20.69922 -15.97838,-28.08318 -7.62601,-11.49956 -15.61519,-21.90968 -22.51492,-29.05152 -4.47878,-4.59983 -7.74708,-7.14183 -10.04703,-8.47337 6.65768,-3.75247 14.64685,-5.81031 22.99918,-5.81031 4.96293,0 9.68386,0.72629 14.16262,2.05784 z m -41.39845,6.17345 c 2.54203,-0.9684 16.46254,11.13641 33.65136,37.16177 7.38393,11.1364 12.58903,20.69918 15.97834,28.20418 -2.54201,1.69469 -5.20506,3.2683 -8.1102,4.72087 -0.36316,0.12106 -0.60526,0.24209 -0.96839,0.4842 -3.63142,-6.05241 -10.16805,-8.83652 -18.2783,-12.22586 -1.69462,-0.72629 -3.51039,-1.45258 -5.32609,-2.29989 l -0.96838,-0.48421 c -10.77333,-4.72087 -30.62516,-13.67846 -35.7092,-30.26204 3.63147,-10.53115 10.65227,-19.36768 19.73086,-25.29902 z m 54.59268,82.79688 c -5.68928,3.75248 -12.1048,6.41555 -19.1256,7.50496 2.17886,-1.45255 4.23669,-3.14723 5.56821,-5.20505 2.17887,-3.38934 2.54202,-7.26287 1.08943,-11.37853 0.36316,-0.12106 0.72629,-0.36312 0.96838,-0.48418 2.78412,-1.33153 5.44719,-2.90517 7.86816,-4.59983 3.63142,8.11021 4.5998,13.19424 3.63142,14.16263 z m -60.88718,-4.84193 c 3.38935,1.45259 7.26291,2.42096 11.62061,3.0262 2.05782,0.24209 4.11563,0.36316 6.29448,0.36316 8.83652,0 18.27829,-2.05784 27.47793,-6.05241 0.9684,2.90516 0.72629,5.44716 -0.84732,7.8681 -3.38934,5.20509 -11.86274,7.74708 -14.88891,7.74708 -11.49959,-0.96836 -21.78866,-5.68924 -29.65679,-12.95213 z m -15.00997,-46.96666 c 7.38393,15.13099 25.66222,23.24125 35.83024,27.84109 l 0.96839,0.48418 c 1.93675,0.84733 3.75248,1.5736 5.44715,2.2999 7.50501,3.14727 13.19426,5.56822 16.3415,10.41014 -10.65222,4.59981 -21.78865,6.41553 -31.71462,5.3261 -10.65221,-1.21047 -18.64137,-5.93134 -22.5149,-13.07317 -3.38937,-6.89976 -5.44719,-14.64683 -5.44719,-22.87811 0,-3.63142 0.36314,-7.14183 1.08943,-10.41013 z m 79.64966,49.02447 c -0.36316,-3.51039 -1.93678,-8.23125 -4.11563,-13.43633 2.66303,-1.93675 5.08399,-3.99459 7.26286,-6.05238 1.93675,3.38934 4.47878,5.68925 7.38394,6.29446 0.36312,0.12107 0.60525,0.12107 0.96838,0.12107 -3.02624,4.96297 -7.02077,9.44175 -11.49955,13.07318 z m 13.67843,-17.30985 c -0.60525,0.60523 -1.57364,0.72627 -2.42097,0.60523 -2.05781,-0.36315 -3.99461,-2.42098 -5.32612,-5.44719 3.0262,-3.26826 5.68927,-6.77867 7.86811,-10.41012 2.17891,-3.7525 3.63143,-7.50496 4.59982,-11.13642 0.12108,1.69469 0.24211,3.38934 0.24211,5.20506 -0.12105,7.505 -1.81571,14.6468 -4.96295,21.18344 z" /><path
   id="path1" d="M 53.47498,95.32051 C 38.41627,100.44141 25.15979,109.00075 17.10423,118.80162 c -8.05556,9.80093 -13.76087,24.3117 -15.6492,39.80975 -1.38477,11.36092 -0.79429,25.1351 5.0119,29.70993 5.80617,4.57475 19.6752,2.19345 30.71589,-1.56115 15.05871,-5.12091 28.31521,-13.68021 36.37077,-23.48113 8.05554,-9.80087 13.75999,-24.31063 15.64835,-39.80866 1.38561,-11.36197 0.79512,-25.13617 -5.01209,-29.71177 -5.8072,-4.57564 -19.67519,-2.1935 -30.71487,1.56192 z m -44.12138,56.32474 3.71546,2.9275 c 1.41124,1.11196 3.53745,0.83973 4.72486,-0.60525 1.18744,-1.44471 1.00431,-3.53654 -0.40694,-4.64848 l -5.13187,-4.04348 c -0.35405,-0.27904 -0.75307,-0.47047 -1.17025,-0.57825 0.70402,-2.36053 1.54773,-4.70794 2.50274,-7.02821 l 5.55164,4.37424 c 1.41125,1.11196 3.53746,0.83971 4.72487,-0.60525 1.18743,-1.44469 1.00428,-3.53655 -0.40697,-4.64852 l -6.91261,-5.44654 c 1.08914,-1.99993 2.34009,-3.90876 3.66722,-5.7662 l 7.5623,5.95846 c 1.41126,1.11196 3.53746,0.83973 4.72486,-0.60525 1.18744,-1.44469 1.00431,-3.53656 -0.40695,-4.64849 l -7.56231,-5.95844 c 1.56831,-1.66745 3.20623,-3.27133 4.96867,-4.74079 l 6.91158,5.44576 c 1.41124,1.11194 3.53744,0.83974 4.72487,-0.60525 1.18743,-1.44472 1.0043,-3.53653 -0.40697,-4.64848 l -5.55164,-4.37423 c 2.1107,-1.40967 4.27125,-2.71953 6.47684,-3.89694 0.19738,0.37709 0.47272,0.71695 0.8268,0.99593 l 5.13184,4.04351 c 1.41127,1.11192 3.53747,0.83973 4.72487,-0.60525 1.18744,-1.44477 1.0043,-3.53655 -0.40697,-4.64852 l -3.71531,-2.9262 C 62.04131,98.42364 75.41082,96.79824 79.2827,98.72889 70.42671,117.66961 27.37944,170.04371 10.37612,182.56503 7.62261,179.27368 6.38582,166.13977 9.35385,151.64477 Z m 59.06812,7.59029 c -15.32437,18.64464 -44.43957,25.99217 -54.60595,24.78006 9.04146,-7.21678 23.31241,-22.67863 36.6609,-38.91925 13.34848,-16.24063 25.72269,-33.19697 30.98916,-43.38809 3.38477,9.4651 2.27941,38.88374 -13.04411,57.52728 z" /><path
   id="path2" d="m 174.04892,126.18106 c -5.22384,-7.91126 -12.98117,-14.03711 -21.84151,-17.25005 -9.62409,-3.48845 -20.3718,-3.48551 -29.99296,9.6e-4 -8.86034,3.21098 -16.61669,9.33782 -21.84151,17.24908 -4.76401,7.21612 -7.28181,15.59996 -7.28181,24.24361 0,1.97463 0.14411,4.01495 0.42747,6.06507 0.99516,7.2073 3.80709,14.12832 8.13187,20.012 6.19253,8.42306 15.16758,14.39596 25.27014,16.82062 3.38354,0.81182 6.84649,1.22262 10.28983,1.22262 3.44335,0 6.90433,-0.4108 10.28983,-1.22262 10.10454,-2.42367 19.07857,-8.39756 25.2721,-16.82062 4.32279,-5.88172 7.13571,-12.80274 8.13188,-20.012 0.28431,-2.05698 0.42745,-4.09829 0.42745,-6.06507 0,-8.64268 -2.5178,-17.02553 -7.28278,-24.24361 z M 150.42789,114.3431 c 0.19608,0.0725 0.39612,0.12257 0.59124,0.19805 7.65143,2.95507 14.28811,8.4103 18.69424,15.35778 0.12356,0.19608 0.22942,0.40002 0.35004,0.59808 l -4.74541,11.81639 -12.18601,3.06587 -14.043,-10.20159 v -12.59586 z m -15.09403,8.23872 v 12.59586 l -14.04202,10.20257 -12.18602,-3.06587 -4.74539,-11.81639 c 0.12061,-0.19805 0.22649,-0.40297 0.351,-0.59808 4.40419,-6.94747 11.04184,-12.4027 18.69132,-15.35778 0.19609,-0.0755 0.39611,-0.1265 0.59318,-0.19903 z m -27.14378,23.37396 12.39093,3.11685 5.06109,15.57643 -7.14356,10.67514 -10.22415,0.39515 c -0.16569,-0.18926 -0.34217,-0.36572 -0.50394,-0.5579 -5.00031,-5.94053 -8.05833,-13.12726 -8.8427,-20.78066 -0.02243,-0.21863 -0.01472,-0.43826 -0.03333,-0.65788 z m 13.42825,31.45582 6.94356,-10.37612 h 17.2981 l 6.94354,10.37709 -3.51002,9.53391 c -0.23432,0.0774 -0.46179,0.17158 -0.69808,0.24412 -7.36513,2.28642 -15.4166,2.28055 -22.76704,9.6e-4 -0.23629,-0.0735 -0.46376,-0.16668 -0.69808,-0.2451 z m 34.30499,-2.0874 -7.14258,-10.67514 5.06109,-15.57643 12.39093,-3.11685 9.29763,7.76909 c -0.0188,0.21962 -0.011,0.43728 -0.0333,0.65592 -0.78437,7.65242 -3.84337,14.83816 -8.84464,20.78066 -0.16183,0.19218 -0.33925,0.36864 -0.50397,0.5579 z" /><path
   id="path3" d="m 220.12862,115.74837 c -18.09869,0 -32.82161,14.72432 -32.82161,32.82163 0,18.09729 14.72432,32.82299 32.82161,32.82299 18.09728,0 32.8216,-14.72433 32.8216,-32.82163 0,-18.09727 -14.72432,-32.82299 -32.8216,-32.82299 z m -22.66287,12.94707 c 0.79784,-0.33701 1.70161,-0.42231 2.56548,-0.37417 0.0879,0.004 0.16653,0.0592 0.20499,0.1404 0.32188,0.69466 0.62588,1.40859 0.91059,2.14042 0.0649,0.1664 -0.069,0.33976 -0.2462,0.326 -1.28483,-0.10314 -2.59162,-0.0186 -3.84067,0.26962 -1.15549,0.26825 -0.66578,2.0469 0.48972,1.77865 1.38384,-0.32188 2.8805,-0.33014 4.28083,-0.0742 0.0879,0.0163 0.15945,0.0799 0.18705,0.16499 0.32604,1.02344 0.61902,2.07577 0.87898,3.15149 0.047,0.19394 -0.15144,0.3549 -0.33424,0.27236 -1.1486,-0.51997 -2.40313,-0.81297 -3.6563,-0.74556 -1.18026,0.0633 -1.18853,1.90794 0,1.84466 1.54615,-0.0825 3.1872,0.50072 4.39086,1.44713 0.0386,0.0302 0.0785,0.0578 0.12119,0.0825 0.0591,0.0356 0.0989,0.0949 0.11143,0.16368 0.17612,1.01245 0.32326,2.04139 0.4402,3.08546 0.0234,0.21046 -0.21725,0.34391 -0.38517,0.21598 -1.07434,-0.81986 -2.30549,-1.44988 -3.58755,-1.62595 -1.16098,-0.15961 -1.66305,1.61769 -0.48968,1.77864 1.8639,0.25586 3.49534,1.57781 4.6825,2.9644 0.0356,0.0411 0.0549,0.0921 0.0576,0.14584 0.044,0.90102 0.0673,1.81029 0.0673,2.72506 0,0.19532 -0.001,0.39204 -0.007,0.58737 -0.001,0.2201 -0.27375,0.32188 -0.41956,0.15544 -0.97256,-1.11009 -2.07712,-2.11015 -3.31378,-2.86122 -1.01795,-0.61765 -1.9451,0.97667 -0.9313,1.59294 1.81304,1.10046 3.31656,2.85024 4.46929,4.60273 0.0301,0.0454 0.0426,0.0991 0.0399,0.15272 -0.0649,0.8515 -0.14856,1.69336 -0.25036,2.52697 -0.0275,0.2201 -0.31362,0.28612 -0.43741,0.10183 -0.89138,-1.32882 -1.94097,-2.56685 -3.20927,-3.44174 -0.97942,-0.6754 -1.90243,0.92165 -0.93128,1.59295 0.0346,0.0234 0.0661,0.0494 0.10053,0.0728 -0.21183,-0.15272 0.0743,0.0647 0.13335,0.11831 0.33839,0.30399 0.66303,0.619 0.97114,0.95601 1.10877,1.21192 1.99466,2.604 2.77599,4.04424 0.0275,0.0495 0.0356,0.10727 0.025,0.16373 -0.15272,0.77996 -0.32326,1.55029 -0.5117,2.30687 -0.0508,0.20772 -0.33016,0.24621 -0.43883,0.0619 -0.78133,-1.32744 -1.67408,-2.61086 -2.75531,-3.63018 -0.86389,-0.81435 -2.1693,0.48834 -1.30407,1.30407 1.51317,1.42648 2.60676,3.41146 3.56967,5.26027 0.0301,0.0578 0.0357,0.12519 0.0165,0.18706 -0.2063,0.62865 -0.42503,1.24767 -0.65616,1.85432 -0.0701,0.18431 -0.31911,0.20634 -0.42642,0.0413 -0.90516,-1.40724 -1.87358,-2.7787 -2.94105,-4.05939 -0.76068,-0.91338 -2.05921,0.39757 -1.30404,1.30408 1.32333,1.58741 2.47195,3.3413 3.54215,5.11308 0.0413,0.0687 0.0467,0.15544 0.01,0.22833 -0.1444,0.30676 -0.29298,0.61077 -0.44569,0.90928 -0.0867,0.16921 -0.32876,0.1747 -0.42092,0.008 -0.68645,-1.21876 -1.48704,-2.39626 -2.48021,-3.30692 -0.31775,-0.29162 -0.69193,-0.30398 -0.99868,-0.16508 -3.65634,-4.99203 -5.81738,-11.13955 -5.81738,-17.78365 0,-7.60701 2.83234,-14.56477 7.4956,-19.87591 z m 41.70104,43.0794 c -1.3687,0.26275 -2.69203,0.60527 -3.95621,1.26418 -0.74006,0.38654 -0.49935,1.2848 0.0728,1.5957 -4.45555,2.60123 -9.63464,4.09375 -15.15627,4.09375 -5.52163,0 -10.69936,-1.49252 -15.1549,-4.09375 0.57226,-0.31228 0.81297,-1.21054 0.0728,-1.5957 -1.26416,-0.65891 -2.58885,-1.00143 -3.95621,-1.26418 -0.1596,-0.0302 -0.24347,-0.20497 -0.16634,-0.34803 0.27787,-0.51584 0.54611,-1.04405 0.80336,-1.58468 0.0386,-0.0812 0.11847,-0.13479 0.20768,-0.13751 1.49666,-0.0509 2.88048,0.23799 4.37713,0.4966 1.16103,0.20082 1.65895,-1.57644 0.48969,-1.77864 -1.3123,-0.22696 -2.5641,-0.48833 -3.85713,-0.55436 -0.16511,-0.008 -0.27375,-0.17331 -0.21192,-0.32739 0.28891,-0.72083 0.5599,-1.45813 0.81299,-2.21058 0.0315,-0.0935 0.11718,-0.15817 0.2147,-0.16369 1.59291,-0.077 3.18587,-0.10455 4.77742,0.0302 1.18303,0.10042 1.17615,-1.74563 0,-1.84467 -1.34395,-0.11414 -2.69066,-0.11143 -4.03597,-0.0619 -0.16217,0.004 -0.28202,-0.14584 -0.23937,-0.30263 0.33979,-1.22427 0.63693,-2.48019 0.88728,-3.76499 0.0165,-0.0755 0.0633,-0.14024 0.13367,-0.17195 0.0315,-0.0145 0.0649,-0.0288 0.0964,-0.044 0.40303,-0.17885 0.82398,-0.32327 1.24489,-0.45532 1.00969,-0.31777 2.04688,-0.55711 3.11161,-0.49522 1.18575,0.0701 1.18162,-1.77452 0,-1.84467 -1.29171,-0.0755 -2.60815,0.22972 -3.82829,0.63416 -0.001,0 -0.001,0.001 -0.001,0.001 -0.16781,0.0564 -0.33563,-0.0852 -0.31087,-0.26135 0.18566,-1.29718 0.32463,-2.61775 0.41955,-3.95482 0.007,-0.0632 0.0328,-0.12102 0.0798,-0.16233 1.12111,-0.98492 2.54073,-1.94234 3.98093,-2.10741 1.16517,-0.13335 1.17889,-1.97948 0,-1.84466 -1.26687,0.14584 -2.46912,0.65478 -3.56276,1.34808 -0.1609,0.10183 -0.37004,-0.016 -0.3659,-0.20636 0.008,-0.36176 0.01,-0.72493 0.01,-1.08947 0,-1.10597 -0.0315,-2.20232 -0.0922,-3.2904 -0.001,-0.0524 0.01,-0.10314 0.0399,-0.14713 0.95466,-1.41823 2.2807,-2.95754 3.89016,-3.42386 1.13762,-0.33013 0.65342,-2.11015 -0.48974,-1.77863 -1.25863,0.36453 -2.36871,1.18026 -3.31789,2.16656 -0.14055,0.14584 -0.38651,0.0633 -0.40992,-0.13895 -0.15145,-1.30546 -0.34804,-2.59025 -0.58874,-3.84754 -0.01,-0.0537 -0.001,-0.1087 0.0234,-0.15545 0.8666,-1.63008 1.97259,-3.44448 3.49261,-4.32763 1.02619,-0.59564 0.0977,-2.19131 -0.93129,-1.59294 -1.14313,0.66444 -2.08954,1.72777 -2.89013,2.89703 -0.11703,0.17058 -0.37688,0.12375 -0.42915,-0.0755 -0.25858,-0.99181 -0.54604,-1.96435 -0.86245,-2.91213 -0.0184,-0.0536 -0.0165,-0.10997 0.007,-0.16221 0.69469,-1.74838 1.59572,-3.68657 2.99882,-4.89298 0.90099,-0.77446 -0.40857,-2.07441 -1.30408,-1.30408 -1.00968,0.86801 -1.78553,2.0524 -2.42102,3.30969 -0.0922,0.18287 -0.35491,0.17197 -0.43332,-0.0163 -0.22977,-0.54336 -0.4691,-1.0757 -0.71808,-1.59844 -0.0275,-0.0592 -0.0314,-0.12503 -0.01,-0.18568 0.47048,-1.2518 1.03722,-2.56824 1.80614,-3.67969 4.76783,-3.15562 10.47929,-4.99891 16.61446,-4.99891 6.13513,0 11.8452,1.84329 16.61301,5.00165 0.76895,1.11148 1.33434,2.42791 1.80615,3.67969 0.0234,0.0605 0.0186,0.12792 -0.01,0.18568 -0.24898,0.52271 -0.48831,1.05506 -0.71805,1.59843 -0.0798,0.18846 -0.34116,0.19936 -0.43331,0.0163 -0.63417,-1.25731 -1.41136,-2.44169 -2.42105,-3.30968 -0.89551,-0.77032 -2.20504,0.5296 -1.30404,1.30405 1.40171,1.20505 2.3041,3.14325 2.99877,4.89298 0.021,0.0522 0.021,0.10857 0.004,0.16223 -0.3164,0.94779 -0.60253,1.92033 -0.86249,2.91212 -0.0522,0.19946 -0.31226,0.24624 -0.42919,0.0755 -0.80057,-1.16927 -1.74701,-2.2326 -2.89012,-2.897 -1.02894,-0.59839 -1.95608,0.99592 -0.93129,1.59293 1.52003,0.88313 2.62603,2.69755 3.49265,4.32761 0.0263,0.0481 0.0329,0.10314 0.0234,0.15544 -0.24073,1.25867 -0.43608,2.54349 -0.58876,3.84754 -0.0234,0.20221 -0.26824,0.28475 -0.40992,0.13896 -0.94917,-0.98494 -2.05929,-1.80203 -3.31793,-2.16658 -1.14451,-0.3315 -1.6287,1.44853 -0.48971,1.77866 1.60943,0.46633 2.93551,2.00562 3.89017,3.42384 0.0288,0.044 0.0426,0.0949 0.0399,0.14713 -0.0622,1.08673 -0.0922,2.18445 -0.0922,3.29042 0,0.36452 0.007,0.72768 0.01,1.08948 0.004,0.19121 -0.20493,0.30811 -0.36589,0.20634 -1.09363,-0.69193 -2.29588,-1.20228 -3.56281,-1.34808 -1.17888,-0.1348 -1.16512,1.70986 0,1.84467 1.44163,0.16507 2.85986,1.12386 3.98096,2.10739 0.047,0.0412 0.0755,0.10042 0.0799,0.16234 0.0937,1.33706 0.23385,2.65764 0.41957,3.95482 0.025,0.17607 -0.14184,0.31776 -0.3109,0.26137 -0.001,0 -0.001,-0.001 -0.001,-0.001 -1.21877,-0.40441 -2.53662,-0.7098 -3.8283,-0.63415 -1.18161,0.0701 -1.18577,1.91483 0,1.84468 1.0647,-0.0633 2.10189,0.17744 3.11161,0.49521 0.41955,0.13206 0.84184,0.27649 1.24491,0.45532 0.0329,0.0128 0.0649,0.0288 0.0964,0.044 0.0701,0.0315 0.11831,0.0964 0.13335,0.17196 0.25035,1.28479 0.54611,2.5407 0.88727,3.76498 0.044,0.15689 -0.0772,0.30813 -0.23937,0.30262 -1.34534,-0.0495 -2.69067,-0.0524 -4.03601,0.0619 -1.1761,0.0991 -1.183,1.9437 0,1.84468 1.59158,-0.1348 3.18453,-0.10727 4.77746,-0.0302 0.0978,0.004 0.18289,0.0701 0.21468,0.16372 0.2531,0.75244 0.52549,1.48976 0.81296,2.21055 0.0619,0.15401 -0.0467,0.31916 -0.2119,0.32741 -1.2917,0.0674 -2.54349,0.32738 -3.85712,0.55437 -1.1693,0.20221 -0.66996,1.97947 0.48966,1.77863 1.4953,-0.25862 2.88048,-0.5475 4.37716,-0.4966 0.0893,0.003 0.16923,0.0564 0.20771,0.13751 0.25722,0.53923 0.52546,1.06746 0.80334,1.58467 0.0772,0.14024 -0.008,0.31501 -0.16634,0.34529 z m 4.30559,-5.25888 c -0.9918,0.91064 -1.79375,2.08814 -2.48018,3.30694 -0.0937,0.16643 -0.33564,0.16093 -0.42092,-0.008 -0.15144,-0.29989 -0.29988,-0.60251 -0.4457,-0.90928 -0.0344,-0.0728 -0.0301,-0.1596 0.01,-0.22834 1.07021,-1.77038 2.21883,-3.52426 3.54216,-5.11308 0.75519,-0.90651 -0.54336,-2.21746 -1.30407,-1.30405 -1.06744,1.28066 -2.03586,2.65213 -2.94103,4.05936 -0.10563,0.16509 -0.35626,0.14169 -0.42644,-0.0413 -0.23114,-0.60663 -0.44981,-1.22428 -0.65613,-1.85429 -0.0208,-0.0619 -0.0165,-0.12935 0.0165,-0.18708 0.9629,-1.84741 2.05513,-3.83239 3.56965,-5.26025 0.86523,-0.81574 -0.44019,-2.11842 -1.30404,-1.30408 -1.0826,1.01933 -1.97397,2.30275 -2.75533,3.63021 -0.10857,0.18432 -0.3879,0.14583 -0.43881,-0.0619 -0.18707,-0.75796 -0.35764,-1.52691 -0.51171,-2.30688 -0.01,-0.0551 -0.001,-0.11415 0.0248,-0.16368 0.78134,-1.44024 1.66723,-2.83235 2.77592,-4.04424 0.30816,-0.33566 0.63279,-0.65065 0.9712,-0.95605 0.0606,-0.0536 0.34527,-0.27098 0.13351,-0.11831 0.0331,-0.0248 0.0657,-0.0497 0.10053,-0.0728 0.97115,-0.66988 0.048,-2.26833 -0.93129,-1.59292 -1.26828,0.87488 -2.31784,2.11291 -3.20925,3.44173 -0.12392,0.18432 -0.40993,0.11831 -0.43745,-0.10183 -0.10292,-0.83361 -0.18705,-1.67684 -0.25033,-2.52696 -0.007,-0.0537 0.01,-0.10726 0.0399,-0.15272 1.1527,-1.75114 2.65627,-3.50227 4.46927,-4.60274 1.01381,-0.61626 0.0867,-2.2092 -0.93128,-1.59294 -1.23667,0.74971 -2.34125,1.75112 -3.31379,2.86125 -0.14585,0.16643 -0.41679,0.0647 -0.41954,-0.15545 -0.001,-0.19533 -0.004,-0.39068 -0.004,-0.58739 0,-0.91476 0.0234,-1.82266 0.0673,-2.72504 0.001,-0.0537 0.0234,-0.10597 0.0578,-0.14585 1.18851,-1.3866 2.81858,-2.70853 4.68251,-2.96438 1.17199,-0.16095 0.6699,-1.93822 -0.48971,-1.77866 -1.28341,0.17609 -2.51321,0.8061 -3.58755,1.62597 -0.16779,0.1279 -0.40992,-0.004 -0.38514,-0.21598 0.11719,-1.04269 0.2641,-2.07303 0.44016,-3.08545 0.01,-0.0674 0.0522,-0.12792 0.11143,-0.1637 0.0426,-0.0248 0.0828,-0.0524 0.12102,-0.0826 1.20361,-0.94641 2.84608,-1.52967 4.39088,-1.44713 1.1885,0.0633 1.18027,-1.7814 0,-1.84468 -1.25317,-0.0674 -2.50906,0.22424 -3.6563,0.74558 -0.1815,0.0825 -0.37966,-0.0785 -0.33428,-0.27237 0.25862,-1.07572 0.55162,-2.12802 0.87902,-3.15148 0.0275,-0.0852 0.0989,-0.14856 0.18705,-0.16502 1.40036,-0.25585 2.89701,-0.24759 4.28086,0.0743 1.15687,0.26824 1.64655,-1.51039 0.48969,-1.77862 -1.24767,-0.29024 -2.55446,-0.37281 -3.84066,-0.26965 -0.1776,0.0145 -0.31088,-0.15944 -0.24622,-0.326 0.28476,-0.7318 0.58877,-1.44573 0.91063,-2.14042 0.0372,-0.0812 0.11558,-0.13479 0.20495,-0.14024 0.86522,-0.0495 1.76761,0.0372 2.56545,0.37416 4.66325,5.31115 7.4956,12.26753 7.4956,19.87456 0,6.6441 -2.16104,12.79161 -5.81459,17.78088 -0.30953,-0.13479 -0.68372,-0.12246 -1.00146,0.1692 z" /><path
   id="path4" d="m 316.32845,96.70295 c -27.74702,0 -50.3243,22.57173 -50.3243,50.3243 0,8.6033 2.17359,16.70705 5.99345,23.79728 0,0 0.0755,0.23867 0.15652,0.28863 8.55113,15.62137 25.14939,26.23728 44.17322,26.23728 17.97923,0 34.70848,-9.6912 43.66813,-25.29591 4.35826,-7.58201 6.65839,-16.23526 6.65839,-25.02617 10e-4,-27.75368 -22.57505,-50.32541 -50.32541,-50.32541 z m 19.48009,9.53246 c -6.86488,3.93642 -12.42205,8.99738 -16.24636,14.83875 -4.89333,7.45767 -6.94369,15.93219 -6.10667,25.2071 -4.93774,2.76749 -10.284,4.54366 -15.91333,5.28076 -0.16096,0.0222 -0.32304,0.0366 -0.48622,0.0566 -1.01242,-3.77324 -1.53084,-7.67192 -1.53084,-11.625 0,-15.42821 10.28289,-27.65044 20.80333,-38.17089 0,0 -0.21869,0 0,0 6.97145,-0.001 13.57434,1.58634 19.48009,4.41266 z m -40.36001,51.59315 c 0.96024,-0.0755 1.92603,-0.17096 2.87627,-0.29529 6.50188,-0.85589 12.65962,-2.92734 18.3389,-6.15774 4.75125,2.89848 8.87084,6.63841 12.20115,10.96004 -8.12374,7.0203 -18.38775,10.85348 -29.21347,10.85348 -8.69322,0 -17.11224,-2.49107 -24.3601,-7.20901 -1.75841,-3.78989 -3.00616,-7.85731 -3.65335,-12.1201 6.28762,2.69089 13.11808,4.10405 20.0096,4.10405 1.26663,0.002 2.54658,-0.0455 3.801,-0.13543 z m 21.21295,-9.93432 z m -8.90413,-45.25445 c -9.46474,10.01979 -18.25343,21.94895 -18.25343,37.35274 0,4.04855 0.48068,8.04825 1.4165,11.9436 -6.9004,-0.11101 -13.70645,-1.82168 -19.79869,-4.96438 0.0289,-21.97449 15.81342,-40.31894 36.63562,-44.33196 z m -26.2062,73.24348 c 5.74145,2.18801 11.86256,3.32365 18.10134,3.32365 12.03351,0 23.45758,-4.17621 32.57819,-11.82926 3.35806,5.82804 5.41175,12.40429 5.8791,19.23809 -6.57847,3.61893 -14.04946,5.61601 -21.78244,5.61601 -13.96842,0 -26.47706,-6.362 -34.77619,-16.34849 z m 62.23237,7.03805 c -0.95469,-7.14462 -3.41801,-14.03059 -7.24453,-20.14392 -4.27612,-6.84046 -10.14856,-12.59967 -17.06228,-16.73481 -0.58059,-6.11444 0.34302,-11.86589 2.65425,-17.05895 7.72299,2.38672 14.80545,6.90928 20.22275,12.95823 7.23787,8.08599 11.81371,18.95945 11.81371,29.82625 v 0 c -2.83631,4.32163 -6.35978,8.07822 -10.3839,11.1532 z m 15.07298,-20.54578 c -1.73287,-9.03291 -5.90242,-17.61734 -12.01798,-24.44669 -5.85135,-6.53407 -13.41559,-11.49512 -21.69141,-14.29591 3.82764,-5.55939 9.49138,-10.27289 16.79808,-13.83521 11.8226,8.16037 19.59443,21.80575 19.59443,37.22952 0,5.25301 -0.92361,10.44607 -2.68312,15.34829 z" /><path
   id="path0" d="m 240.79778,40.1141 h -0.89284 c 3.06123,-4.09221 4.07345,-9.19666 4.37536,-11.31005 0.12187,-0.84605 0.27501,-3.97168 0.18837,-4.93126 -1.14446,-12.72132 -11.30889,-21.95426 -24.16829,-21.95426 -12.85945,0 -23.02266,9.23294 -24.16831,21.9531 -0.0867,0.9502 0.0654,4.07699 0.18735,4.93124 0.30195,2.11457 1.31533,7.21902 4.37661,11.31123 h -0.8917 c -3.60661,0 -6.54147,2.93489 -6.54147,6.54146 v 15.4046 c 0,3.60659 2.93486,6.54146 6.54147,6.54146 h 7.15581 l 2.03382,30.20306 c 0.23869,3.41585 3.10574,6.0921 6.52509,6.0921 h 9.56294 c 3.41932,0 6.28515,-2.67157 6.52507,-6.08508 l 2.0338,-30.21125 h 7.15699 c 3.60658,0 6.54147,-2.9337 6.54147,-6.54144 V 46.65556 c 0,-3.60775 -2.93489,-6.54146 -6.54147,-6.54146 z m -11.7524,28.75668 -1.99401,29.62147 c -0.0725,1.02976 -0.93737,1.8372 -1.96828,1.8372 h -9.56297 c -1.03212,0 -1.89688,-0.80627 -1.96828,-1.83488 L 211.5578,68.87078 Z M 220.30047,6.48585 c 10.39723,0 18.35465,7.02945 19.55529,17.17279 h -39.11065 c 1.20178,-10.14334 9.15803,-17.17279 19.55536,-17.17279 z m 19.35752,22.32404 c -0.83787,4.93711 -3.06827,9.13932 -5.79134,10.87825 H 206.7342 c -2.72308,-1.73893 -4.95233,-5.94115 -5.79134,-10.87825 z m 3.11276,33.24911 c 0,1.08829 -0.88468,1.97414 -1.97297,1.97414 h -40.99355 c -1.08943,0 -1.97413,-0.88585 -1.97413,-1.97414 V 46.65556 c 0,-1.08946 0.88584,-1.97414 1.97413,-1.97414 h 40.99355 c 1.08829,0 1.97297,0.88584 1.97297,1.97414 z" /><text
   style="font-size:83.2679px;line-height:1.25;font-family:'Trebuchet MS';text-align:end;text-anchor:end" x="458.88712" y="83.0621" id="text1">222&#160;&#160;&#160;&#160;Talks</text>
</svg>
